<svg xmlns="http://www.w3.org/2000/svg" width="800" height="600"><line x1="60" y1="540" x2="740" y2="540" stroke="black" stroke-width="2"/><line x1="60" y1="60" x2="60" y2="540" stroke="black" stroke-width="2"/><line x1="60.0" y1="540" x2="60.0" y2="546" stroke="black"/><text x="60.0" y="560" font-size="14" text-anchor="middle">128</text><line x1="173.33333333333331" y1="540" x2="173.33333333333331" y2="546" stroke="black"/><text x="173.33333333333331" y="560" font-size="14" text-anchor="middle">192</text><line x1="286.66666666666663" y1="540" x2="286.66666666666663" y2="546" stroke="black"/><text x="286.66666666666663" y="560" font-size="14" text-anchor="middle">256</text><line x1="400.0" y1="540" x2="400.0" y2="546" stroke="black"/><text x="400.0" y="560" font-size="14" text-anchor="middle">320</text><line x1="513.3333333333333" y1="540" x2="513.3333333333333" y2="546" stroke="black"/><text x="513.3333333333333" y="560" font-size="14" text-anchor="middle">384</text><line x1="626.6666666666666" y1="540" x2="626.6666666666666" y2="546" stroke="black"/><text x="626.6666666666666" y="560" font-size="14" text-anchor="middle">448</text><line x1="740.0" y1="540" x2="740.0" y2="546" stroke="black"/><text x="740.0" y="560" font-size="14" text-anchor="middle">512</text><line x1="54" y1="540.0" x2="60" y2="540.0" stroke="black"/><text x="50" y="545.0" font-size="14" text-anchor="end">0</text><line x1="54" y1="443.74492778463207" x2="60" y2="443.74492778463207" stroke="black"/><text x="50" y="448.74492778463207" font-size="14" text-anchor="end">31</text><line x1="54" y1="347.48985556926414" x2="60" y2="347.48985556926414" stroke="black"/><text x="50" y="352.48985556926414" font-size="14" text-anchor="end">62</text><line x1="54" y1="251.2347833538962" x2="60" y2="251.2347833538962" stroke="black"/><text x="50" y="256.2347833538962" font-size="14" text-anchor="end">93</text><line x1="54" y1="154.97971113852833" x2="60" y2="154.97971113852833" stroke="black"/><text x="50" y="159.97971113852833" font-size="14" text-anchor="end">124</text><line x1="54" y1="58.7246389231604" x2="60" y2="58.7246389231604" stroke="black"/><text x="50" y="63.7246389231604" font-size="14" text-anchor="end">155</text><polyline points="60.0,534.590943111855 173.33333333333331,519.6115486835644 286.66666666666663,486.7175824948663 400.0,434.54070106916095 513.3333333333333,354.59877703273247 626.6666666666666,238.28286850672208 740.0,60.0" fill="none" stroke="#d62728" stroke-width="2"/><circle cx="60.0" cy="534.590943111855" r="4" fill="#d62728"/><circle cx="173.33333333333331" cy="519.6115486835644" r="4" fill="#d62728"/><circle cx="286.66666666666663" cy="486.7175824948663" r="4" fill="#d62728"/><circle cx="400.0" cy="434.54070106916095" r="4" fill="#d62728"/><circle cx="513.3333333333333" cy="354.59877703273247" r="4" fill="#d62728"/><circle cx="626.6666666666666" cy="238.28286850672208" r="4" fill="#d62728"/><circle cx="740.0" cy="60.0" r="4" fill="#d62728"/><polyline points="60.0,539.4029794670854 173.33333333333331,537.8770260722388 286.66666666666663,535.5454177229497 400.0,530.014293878224 513.3333333333333,522.1554460421233 626.6666666666666,510.44305743990384 740.0,497.59849804827314" fill="none" stroke="#1f77b4" stroke-width="2"/><circle cx="60.0" cy="539.4029794670854" r="4" fill="#1f77b4"/><circle cx="173.33333333333331" cy="537.8770260722388" r="4" fill="#1f77b4"/><circle cx="286.66666666666663" cy="535.5454177229497" r="4" fill="#1f77b4"/><circle cx="400.0" cy="530.014293878224" r="4" fill="#1f77b4"/><circle cx="513.3333333333333" cy="522.1554460421233" r="4" fill="#1f77b4"/><circle cx="626.6666666666666" cy="510.44305743990384" r="4" fill="#1f77b4"/><circle cx="740.0" cy="497.59849804827314" r="4" fill="#1f77b4"/><text x="60" y="40" font-size="16">Matrix multiplication timings (ms)</text><text x="740" y="40" font-size="14" text-anchor="end">Scalar vs AVX2</text></svg>