<svg xmlns="http://www.w3.org/2000/svg" width="800" height="600"><line x1="60" y1="540" x2="740" y2="540" stroke="black" stroke-width="2"/><line x1="60" y1="60" x2="60" y2="540" stroke="black" stroke-width="2"/><line x1="60.0" y1="540" x2="60.0" y2="546" stroke="black"/><text x="60.0" y="560" font-size="14" text-anchor="middle">4096</text><line x1="157.14285714285714" y1="540" x2="157.14285714285714" y2="546" stroke="black"/><text x="157.14285714285714" y="560" font-size="14" text-anchor="middle">8192</text><line x1="254.28571428571428" y1="540" x2="254.28571428571428" y2="546" stroke="black"/><text x="254.28571428571428" y="560" font-size="14" text-anchor="middle">16384</text><line x1="351.42857142857144" y1="540" x2="351.42857142857144" y2="546" stroke="black"/><text x="351.42857142857144" y="560" font-size="14" text-anchor="middle">32768</text><line x1="448.57142857142856" y1="540" x2="448.57142857142856" y2="546" stroke="black"/><text x="448.57142857142856" y="560" font-size="14" text-anchor="middle">65536</text><line x1="545.7142857142858" y1="540" x2="545.7142857142858" y2="546" stroke="black"/><text x="545.7142857142858" y="560" font-size="14" text-anchor="middle">131072</text><line x1="642.8571428571429" y1="540" x2="642.8571428571429" y2="546" stroke="black"/><text x="642.8571428571429" y="560" font-size="14" text-anchor="middle">262144</text><line x1="740.0" y1="540" x2="740.0" y2="546" stroke="black"/><text x="740.0" y="560" font-size="14" text-anchor="middle">524288</text><line x1="54" y1="540.0" x2="60" y2="540.0" stroke="black"/><text x="50" y="545.0" font-size="14" text-anchor="end">0</text><line x1="54" y1="-1264.1450231907809" x2="60" y2="-1264.1450231907809" stroke="black"/><text x="50" y="-1259.1450231907809" font-size="14" text-anchor="end">1</text><polyline points="60.0,537.1783171837296 157.14285714285714,534.4648830688507 254.28571428571428,528.8738376419825 351.42857142857144,515.5159478902779 448.57142857142856,483.752170611981 545.7142857142858,380.54605456035245 642.8571428571429,282.8335601043397 740.0,60.0" fill="none" stroke="#d62728" stroke-width="2"/><circle cx="60.0" cy="537.1783171837296" r="4" fill="#d62728"/><circle cx="157.14285714285714" cy="534.4648830688507" r="4" fill="#d62728"/><circle cx="254.28571428571428" cy="528.8738376419825" r="4" fill="#d62728"/><circle cx="351.42857142857144" cy="515.5159478902779" r="4" fill="#d62728"/><circle cx="448.57142857142856" cy="483.752170611981" r="4" fill="#d62728"/><circle cx="545.7142857142858" cy="380.54605456035245" r="4" fill="#d62728"/><circle cx="642.8571428571429" cy="282.8335601043397" r="4" fill="#d62728"/><circle cx="740.0" cy="60.0" r="4" fill="#d62728"/><polyline points="60.0,539.6409751403851 157.14285714285714,539.1917430296105 254.28571428571428,538.7623565140912 351.42857142857144,537.8675005825885 448.57142857142856,535.8901576371715 545.7142857142858,531.9932043870793 642.8571428571429,520.2049208055507 740.0,439.570463139062" fill="none" stroke="#1f77b4" stroke-width="2"/><circle cx="60.0" cy="539.6409751403851" r="4" fill="#1f77b4"/><circle cx="157.14285714285714" cy="539.1917430296105" r="4" fill="#1f77b4"/><circle cx="254.28571428571428" cy="538.7623565140912" r="4" fill="#1f77b4"/><circle cx="351.42857142857144" cy="537.8675005825885" r="4" fill="#1f77b4"/><circle cx="448.57142857142856" cy="535.8901576371715" r="4" fill="#1f77b4"/><circle cx="545.7142857142858" cy="531.9932043870793" r="4" fill="#1f77b4"/><circle cx="642.8571428571429" cy="520.2049208055507" r="4" fill="#1f77b4"/><circle cx="740.0" cy="439.570463139062" r="4" fill="#1f77b4"/><text x="60" y="40" font-size="16">Substring search timings (ms)</text><text x="740" y="40" font-size="14" text-anchor="end">Scalar vs AVX2</text></svg>