<svg xmlns="http://www.w3.org/2000/svg" width="800" height="600"><line x1="60" y1="540" x2="740" y2="540" stroke="black" stroke-width="2"/><line x1="60" y1="60" x2="60" y2="540" stroke="black" stroke-width="2"/><line x1="60.0" y1="540" x2="60.0" y2="546" stroke="black"/><text x="60.0" y="560" font-size="14" text-anchor="middle">256</text><line x1="157.14285714285714" y1="540" x2="157.14285714285714" y2="546" stroke="black"/><text x="157.14285714285714" y="560" font-size="14" text-anchor="middle">512</text><line x1="254.28571428571428" y1="540" x2="254.28571428571428" y2="546" stroke="black"/><text x="254.28571428571428" y="560" font-size="14" text-anchor="middle">768</text><line x1="351.42857142857144" y1="540" x2="351.42857142857144" y2="546" stroke="black"/><text x="351.42857142857144" y="560" font-size="14" text-anchor="middle">1024</text><line x1="448.57142857142856" y1="540" x2="448.57142857142856" y2="546" stroke="black"/><text x="448.57142857142856" y="560" font-size="14" text-anchor="middle">1280</text><line x1="545.7142857142858" y1="540" x2="545.7142857142858" y2="546" stroke="black"/><text x="545.7142857142858" y="560" font-size="14" text-anchor="middle">1536</text><line x1="642.8571428571429" y1="540" x2="642.8571428571429" y2="546" stroke="black"/><text x="642.8571428571429" y="560" font-size="14" text-anchor="middle">1792</text><line x1="740.0" y1="540" x2="740.0" y2="546" stroke="black"/><text x="740.0" y="560" font-size="14" text-anchor="middle">2048</text><line x1="54" y1="540.0" x2="60" y2="540.0" stroke="black"/><text x="50" y="545.0" font-size="14" text-anchor="end">0</text><line x1="54" y1="443.2675901720581" x2="60" y2="443.2675901720581" stroke="black"/><text x="50" y="448.2675901720581" font-size="14" text-anchor="end">25</text><line x1="54" y1="346.53518034411616" x2="60" y2="346.53518034411616" stroke="black"/><text x="50" y="351.53518034411616" font-size="14" text-anchor="end">50</text><line x1="54" y1="249.8027705161743" x2="60" y2="249.8027705161743" stroke="black"/><text x="50" y="254.8027705161743" font-size="14" text-anchor="end">75</text><line x1="54" y1="153.07036068823237" x2="60" y2="153.07036068823237" stroke="black"/><text x="50" y="158.07036068823237" font-size="14" text-anchor="end">100</text><line x1="54" y1="56.33795086029045" x2="60" y2="56.33795086029045" stroke="black"/><text x="50" y="61.33795086029045" font-size="14" text-anchor="end">125</text><polyline points="60.0,531.9630999390408 157.14285714285714,509.13813212392887 254.28571428571428,460.0672161271758 351.42857142857144,417.58703905656495 448.57142857142856,338.7065451615166 545.7142857142858,267.9833444846993 642.8571428571429,175.87065013094912 740.0,60.0" fill="none" stroke="#d62728" stroke-width="2"/><circle cx="60.0" cy="531.9630999390408" r="4" fill="#d62728"/><circle cx="157.14285714285714" cy="509.13813212392887" r="4" fill="#d62728"/><circle cx="254.28571428571428" cy="460.0672161271758" r="4" fill="#d62728"/><circle cx="351.42857142857144" cy="417.58703905656495" r="4" fill="#d62728"/><circle cx="448.57142857142856" cy="338.7065451615166" r="4" fill="#d62728"/><circle cx="545.7142857142858" cy="267.9833444846993" r="4" fill="#d62728"/><circle cx="642.8571428571429" cy="175.87065013094912" r="4" fill="#d62728"/><circle cx="740.0" cy="60.0" r="4" fill="#d62728"/><polyline points="60.0,537.4877664536549 157.14285714285714,530.1549119564983 254.28571428571428,516.3567843380426 351.42857142857144,497.19600151424913 448.57142857142856,478.4857479545811 545.7142857142858,452.47607835718577 642.8571428571429,420.16960093415133 740.0,350.2573622190712" fill="none" stroke="#1f77b4" stroke-width="2"/><circle cx="60.0" cy="537.4877664536549" r="4" fill="#1f77b4"/><circle cx="157.14285714285714" cy="530.1549119564983" r="4" fill="#1f77b4"/><circle cx="254.28571428571428" cy="516.3567843380426" r="4" fill="#1f77b4"/><circle cx="351.42857142857144" cy="497.19600151424913" r="4" fill="#1f77b4"/><circle cx="448.57142857142856" cy="478.4857479545811" r="4" fill="#1f77b4"/><circle cx="545.7142857142858" cy="452.47607835718577" r="4" fill="#1f77b4"/><circle cx="642.8571428571429" cy="420.16960093415133" r="4" fill="#1f77b4"/><circle cx="740.0" cy="350.2573622190712" r="4" fill="#1f77b4"/><text x="60" y="40" font-size="16">Convolution timings (ms)</text><text x="740" y="40" font-size="14" text-anchor="end">Scalar vs AVX2</text></svg>