<svg xmlns="http://www.w3.org/2000/svg" width="700" height="500"><line x1="60" y1="440" x2="640" y2="440" stroke="black" stroke-width="2"/><line x1="60" y1="60" x2="60" y2="440" stroke="black" stroke-width="2"/><line x1="60.0" y1="440" x2="60.0" y2="446" stroke="black"/><text x="60.0" y="460" font-size="12" text-anchor="middle">1</text><line x1="142.85714285714283" y1="440" x2="142.85714285714283" y2="446" stroke="black"/><text x="142.85714285714283" y="460" font-size="12" text-anchor="middle">2</text><line x1="308.57142857142856" y1="440" x2="308.57142857142856" y2="446" stroke="black"/><text x="308.57142857142856" y="460" font-size="12" text-anchor="middle">4</text><line x1="640.0" y1="440" x2="640.0" y2="446" stroke="black"/><text x="640.0" y="460" font-size="12" text-anchor="middle">8</text><line x1="54" y1="440.0" x2="60" y2="440.0" stroke="black"/><text x="50" y="444.0" font-size="12" text-anchor="end">0</text><line x1="54" y1="392.5" x2="60" y2="392.5" stroke="black"/><text x="50" y="396.5" font-size="12" text-anchor="end">1</text><line x1="54" y1="345.0" x2="60" y2="345.0" stroke="black"/><text x="50" y="349.0" font-size="12" text-anchor="end">2</text><line x1="54" y1="297.5" x2="60" y2="297.5" stroke="black"/><text x="50" y="301.5" font-size="12" text-anchor="end">3</text><line x1="54" y1="250.0" x2="60" y2="250.0" stroke="black"/><text x="50" y="254.0" font-size="12" text-anchor="end">4</text><line x1="54" y1="202.5" x2="60" y2="202.5" stroke="black"/><text x="50" y="206.5" font-size="12" text-anchor="end">5</text><line x1="54" y1="155.0" x2="60" y2="155.0" stroke="black"/><text x="50" y="159.0" font-size="12" text-anchor="end">6</text><line x1="54" y1="107.5" x2="60" y2="107.5" stroke="black"/><text x="50" y="111.5" font-size="12" text-anchor="end">7</text><line x1="54" y1="60.0" x2="60" y2="60.0" stroke="black"/><text x="50" y="64.0" font-size="12" text-anchor="end">8</text><polyline points="60.0,392.5 142.85714285714283,345.0 308.57142857142856,250.0 640.0,60.0" fill="none" stroke="gray" stroke-width="2" stroke-dasharray="6,4"/><polyline points="60.0,392.92275 142.85714285714283,349.9305 308.57142857142856,278.38599999999997 640.0,178.35575" fill="none" stroke="#d62728" stroke-width="2"/><circle cx="60.0" cy="392.92275" r="4" fill="#d62728"/><circle cx="142.85714285714283" cy="349.9305" r="4" fill="#d62728"/><circle cx="308.57142857142856" cy="278.38599999999997" r="4" fill="#d62728"/><circle cx="640.0" cy="178.35575" r="4" fill="#d62728"/><polyline points="60.0,392.7755 142.85714285714283,344.6105 308.57142857142856,253.89975 640.0,118.26825000000002" fill="none" stroke="#1f77b4" stroke-width="2"/><circle cx="60.0" cy="392.7755" r="4" fill="#1f77b4"/><circle cx="142.85714285714283" cy="344.6105" r="4" fill="#1f77b4"/><circle cx="308.57142857142856" cy="253.89975" r="4" fill="#1f77b4"/><circle cx="640.0" cy="118.26825000000002" r="4" fill="#1f77b4"/><polyline points="60.0,394.704 142.85714285714283,345.342 308.57142857142856,256.16075 640.0,141.46249999999998" fill="none" stroke="#2ca02c" stroke-width="2"/><circle cx="60.0" cy="394.704" r="4" fill="#2ca02c"/><circle cx="142.85714285714283" cy="345.342" r="4" fill="#2ca02c"/><circle cx="308.57142857142856" cy="256.16075" r="4" fill="#2ca02c"/><circle cx="640.0" cy="141.46249999999998" r="4" fill="#2ca02c"/><text x="350.0" y="485" font-size="14" text-anchor="middle">N (workers)</text><text x="15" y="250.0" font-size="14" text-anchor="middle" transform="rotate(-90 15 250.0)">Speedup</text><line x1="540" y1="80" x2="560" y2="80" stroke="gray" stroke-width="2" stroke-dasharray="6,4"/><text x="565" y="84" font-size="12">ideal</text><line x1="540" y1="100" x2="560" y2="100" stroke="#d62728" stroke-width="2"/><text x="565" y="104" font-size="12">M=200</text><line x1="540" y1="120" x2="560" y2="120" stroke="#1f77b4" stroke-width="2"/><text x="565" y="124" font-size="12">M=400</text><line x1="540" y1="140" x2="560" y2="140" stroke="#2ca02c" stroke-width="2"/><text x="565" y="144" font-size="12">M=600</text></svg>